<?xml version="1.0" encoding="UTF-8"?>
<svg id="Layer_1" xmlns="http://www.w3.org/2000/svg" version="1.1" viewBox="0 0 250 45.69">
  <!-- Generator: Adobe Illustrator 29.2.1, SVG Export Plug-In . SVG Version: 2.1.0 Build 116)  -->
  <defs>
    <style>
      .st0 {
        fill: #fff;
      }

      .st1 {
        fill: #ef5b27;
      }
    </style>
  </defs>
  <path class="st1" d="M135.86,4.04c0,.74-.58,1.34-1.34,1.34h-18.23c-.71,0-1.34-.6-1.34-1.34s.62-1.32,1.34-1.32h18.23c.76,0,1.34.61,1.34,1.32"/>
  <path class="st0" d="M234.43,16.97l-11.13,24.87c-.27.71-.85,1.14-1.61,1.14-.8,0-1.47-.67-1.47-1.52,0-.25,0-.54.18-.88l11.93-26.04c.4-.92,1.03-1.48,2.11-1.48h.18c.98,0,1.65.56,2.06,1.48l11.88,26c.13.29.22.58.22.85,0,.87-.71,1.58-1.6,1.58-.81,0-1.35-.53-1.62-1.21l-11.13-24.79Z"/>
  <path class="st0" d="M125.44,16.97l-11.12,24.87c-.27.71-.81,1.14-1.57,1.14-.85,0-1.52-.67-1.52-1.52,0-.25.04-.54.18-.88l11.92-26.04c.46-.92,1.08-1.48,2.1-1.48h.18c.98,0,1.66.56,2.06,1.48l11.89,26c.13.29.22.58.22.85,0,.87-.71,1.58-1.61,1.58-.76,0-1.34-.53-1.61-1.21l-11.13-24.79Z"/>
  <path class="st0" d="M15.45,16.97l-11.13,24.87c-.27.71-.81,1.14-1.58,1.14-.85,0-1.51-.67-1.51-1.52,0-.25.04-.54.22-.88L13.34,14.54c.44-.92,1.07-1.48,2.1-1.48h.18c.98,0,1.65.56,2.05,1.48l11.94,26c.09.29.17.58.17.85,0,.87-.72,1.58-1.61,1.58-.76,0-1.34-.53-1.61-1.21l-11.12-24.79Z"/>
  <path class="st0" d="M56.59,15.25c0-.84.76-1.58,1.61-1.58h.36c.71,0,1.2.36,1.52.85l10.24,15.39,10.23-15.39c.31-.52.85-.85,1.52-.85h.35c.89,0,1.61.74,1.61,1.58v25.76c0,.89-.72,1.63-1.61,1.63s-1.61-.76-1.61-1.63v-21.36l-9.2,13.45c-.36.54-.76.82-1.34.82s-1.03-.28-1.39-.82l-9.12-13.43v21.38c0,.89-.71,1.58-1.6,1.58-.85,0-1.57-.69-1.57-1.58V15.25Z"/>
  <path class="st0" d="M169.5,41.01V15.72s-.04-1.67,1.21-1.78c1.3-.12,13-.07,13-.07,0,0,7.1.38,8.41,6.66,1.29,6.28-3.49,9.74-7.6,10.33l7.37,9.56s.85,1.32-.49,2.12c-1.39.78-2.01-.45-2.63-1.02-.63-.58-9.03-11.57-9.03-11.57,0,0-1.12-1.35.04-1.39,0,0,4.6.26,6.66-1.23,0,0,1.7-.88,2.41-3.87.72-2.98-1.3-6.72-7.64-6.52h-8.49v23.91s.22,2.09-1.74,1.98c0,0-1.57.16-1.48-1.8"/>
</svg>